<?xml version="1.0" encoding="UTF-8" standalone="no"?>
<svg
   width="128"
   height="128"
   fill="none"
   viewBox="0 0 1024 1024"
   version="1.1"
   id="svg2"
   sodipodi:docname="discord.svg"
   inkscape:version="1.4.2 (f4327f4, 2025-05-13)"
   xml:space="preserve"
   xmlns:inkscape="http://www.inkscape.org/namespaces/inkscape"
   xmlns:sodipodi="http://sodipodi.sourceforge.net/DTD/sodipodi-0.dtd"
   xmlns="http://www.w3.org/2000/svg"
   xmlns:svg="http://www.w3.org/2000/svg"><defs
     id="defs2"><inkscape:path-effect
       effect="spiro"
       id="path-effect72"
       is_visible="true"
       lpeversion="1" /><inkscape:path-effect
       effect="spiro"
       id="path-effect41"
       is_visible="true"
       lpeversion="1" /><inkscape:path-effect
       effect="spiro"
       id="path-effect40"
       is_visible="true"
       lpeversion="1" /><inkscape:perspective
       sodipodi:type="inkscape:persp3d"
       inkscape:vp_x="0 : 512 : 1"
       inkscape:vp_y="0 : 1000 : 0"
       inkscape:vp_z="778 : 166 : 1"
       inkscape:persp3d-origin="512 : 341.33333 : 1"
       id="perspective32" /><mask
       id="prefix__a-5"><path
         fill="#ffffff"
         d="M 0,0 H 1024 V 1024 H 0 Z"
         id="path1-1" /><path
         fill="#000000"
         d="m 284.17,677.998 h -50.762 a 18.054,18.054 0 0 1 -4.963,-0.621 q -5.565,-1.595 -7.043,-7.276 a 18.477,18.477 0 0 1 -0.535,-4.644 V 306.543 a 18.054,18.054 0 0 1 0.622,-4.963 q 1.594,-5.565 7.275,-7.043 a 18.477,18.477 0 0 1 4.644,-0.535 h 50.762 a 18.054,18.054 0 0 1 4.962,0.622 q 5.566,1.594 7.044,7.275 a 18.477,18.477 0 0 1 0.535,4.644 v 140.341 a 8.601,8.601 0 0 0 0.387,2.699 q 1.273,3.853 6.73,3.87 a 15.563,15.563 0 0 0 0.049,0 h 100.926 a 9.457,9.457 0 0 0 2.6,-0.326 q 2.915,-0.835 3.689,-3.81 a 9.678,9.678 0 0 0 0.28,-2.433 V 306.543 a 18.054,18.054 0 0 1 0.622,-4.963 q 1.594,-5.565 7.275,-7.043 a 18.477,18.477 0 0 1 4.644,-0.535 h 50.762 a 18.054,18.054 0 0 1 4.963,0.622 q 5.565,1.594 7.043,7.275 a 18.477,18.477 0 0 1 0.535,4.644 v 358.914 a 18.054,18.054 0 0 1 -0.622,4.963 q -1.594,5.565 -7.275,7.044 a 18.477,18.477 0 0 1 -4.644,0.534 h -50.762 a 18.054,18.054 0 0 1 -4.963,-0.621 q -5.565,-1.595 -7.043,-7.276 a 18.477,18.477 0 0 1 -0.535,-4.644 V 525.714 a 9.457,9.457 0 0 0 -0.326,-2.6 q -0.835,-2.915 -3.81,-3.69 a 9.678,9.678 0 0 0 -2.433,-0.28 H 303.877 a 11.332,11.332 0 0 0 -2.749,0.304 q -4.417,1.108 -4.417,6.266 v 139.743 a 18.054,18.054 0 0 1 -0.622,4.963 q -1.594,5.565 -7.275,7.044 a 18.477,18.477 0 0 1 -4.644,0.534 z m 382.204,-13.735 h -19.707 a 134.823,134.823 0 0 1 -26.553,-2.45 Q 604.2,658.614 592.017,651.235 a 70.566,70.566 0 0 1 -14.923,-12.054 q -20.019,-21.286 -23.049,-58.485 a 169.757,169.757 0 0 1 -0.541,-13.776 v -96.148 q 0,-36.035 14.981,-59.179 a 75.809,75.809 0 0 1 10.699,-13.082 83.556,83.556 0 0 1 36.283,-20.451 q 16.303,-4.631 36.575,-4.631 h 137.952 q 13.138,0 13.138,12.541 v 294.417 a 134.053,134.053 0 0 1 -2.797,28.254 q -3.937,18.258 -13.417,31.929 a 76.587,76.587 0 0 1 -9.764,11.48 85.404,85.404 0 0 1 -38.038,20.923 q -13.365,3.575 -29.254,4.077 a 166.59,166.59 0 0 1 -5.267,0.083 H 589.933 a 30.033,30.033 0 0 1 -3.303,-0.168 q -3.372,-0.375 -5.351,-1.586 a 6.431,6.431 0 0 1 -1.199,-0.934 7.609,7.609 0 0 1 -1.638,-2.561 q -0.945,-2.331 -1.039,-5.891 a 30.38,30.38 0 0 1 -0.011,-0.804 v -41.207 a 18.054,18.054 0 0 1 0.622,-4.963 q 1.594,-5.565 7.275,-7.043 a 18.477,18.477 0 0 1 4.644,-0.535 h 102.121 q 17.527,0 25.761,-6.782 a 19.767,19.767 0 0 0 1.411,-1.28 23.621,23.621 0 0 0 5.22,-8.275 q 2.842,-7.308 2.842,-18.3 v -45.387 h -2.389 a 45.994,45.994 0 0 1 -21.114,23.34 59.11,59.11 0 0 1 -2.176,1.145 77.77,77.77 0 0 1 -35.235,8.361 z M 727.288,553.184 V 445.689 a 8.601,8.601 0 0 0 -0.387,-2.698 q -1.273,-3.854 -6.73,-3.871 a 15.563,15.563 0 0 0 -0.049,0 h -56.136 q -17.24,0 -25.246,6.561 a 18.813,18.813 0 0 0 -1.628,1.501 23.106,23.106 0 0 0 -4.731,7.601 q -2.731,6.868 -3.003,17.235 a 89.111,89.111 0 0 0 -0.03,2.337 v 88.982 a 74.941,74.941 0 0 0 0.485,8.846 q 1.193,10 5.317,15.715 a 18.909,18.909 0 0 0 1.962,2.313 21.947,21.947 0 0 0 7.418,4.73 q 6.732,2.718 17.024,3 a 88.769,88.769 0 0 0 2.432,0.033 h 22.096 a 54.132,54.132 0 0 0 16.928,-2.419 q 24.278,-7.991 24.278,-42.371 z"
         id="path2-7" /></mask></defs><sodipodi:namedview
     id="namedview2"
     pagecolor="#505050"
     bordercolor="#eeeeee"
     borderopacity="1"
     inkscape:showpageshadow="0"
     inkscape:pageopacity="0"
     inkscape:pagecheckerboard="0"
     inkscape:deskcolor="#505050"
     showgrid="false"
     inkscape:zoom="2.0657956"
     inkscape:cx="50.3438"
     inkscape:cy="38.726"
     inkscape:window-width="1920"
     inkscape:window-height="1017"
     inkscape:window-x="-8"
     inkscape:window-y="-8"
     inkscape:window-maximized="1"
     inkscape:current-layer="svg2" /><path
     id="rect2-6-7"
     mask="none"
     style="display:inline;fill:#7289da;fill-opacity:1"
     d="M 100 0 C 44.6 0 0 44.6 0 100 L 0 924 C 0 979.4 44.6 1024 100 1024 L 924 1024 C 979.4 1024 1024 979.4 1024 924 L 1024 100 C 1024 44.6 979.4 0 924 0 L 100 0 z M 425.875 275.64062 C 431.35062 285.45245 437.83251 298.64232 442.20312 309.14062 C 488.31413 302.07616 534.86879 302.07617 581.84375 309.14062 C 586.21511 298.64233 592.54177 285.45245 597.96875 275.64062 C 642.15853 283.29436 684.43837 296.73906 723.96875 315.23438 C 793.08706 418.45267 827.43064 534.86848 814.75 669.14062 C 761.86673 708.68184 710.55887 732.66088 660.125 748.35938 C 647.63683 731.23864 636.58944 712.9917 627.03125 693.85938 C 645.23526 686.94141 662.72699 678.41153 679.25 668.45312 C 674.92713 665.21516 670.64764 661.82705 666.46875 658.34375 C 567.18652 705.34214 458.0139 705.34214 357.53125 658.34375 C 353.40092 661.82705 349.12054 665.21516 344.75 668.45312 C 361.22444 678.36296 378.65544 686.89536 396.85938 693.8125 C 387.30118 712.9942 376.20605 731.19089 363.76562 748.3125 C 313.38031 732.614 262.13319 708.63253 209.25 669.14062 C 198.44276 553.31441 220.06372 435.81536 299.79688 315.32812 C 339.32734 296.78426 381.63755 283.29435 425.875 275.64062 z M 410.5625 472.95312 C 379.87039 472.95312 355.65625 501.16139 355.65625 535.45312 C 355.65625 569.74486 380.39865 597.90625 410.5625 597.90625 C 441.25542 597.90625 465.50063 569.74486 465.45312 535.45312 C 465.98137 501.11202 441.25542 472.95312 410.5625 472.95312 z M 613.4375 472.95312 C 582.74458 472.95312 558.54688 501.16139 558.54688 535.45312 C 558.54688 569.74486 583.27357 597.90625 613.4375 597.90625 C 644.1296 597.90625 668.34375 569.74486 668.34375 535.45312 C 668.87194 501.11202 644.1296 472.95312 613.4375 472.95312 z " /></svg>
