<?xml version="1.0" encoding="UTF-8" standalone="no"?>
<svg
   width="128"
   height="128"
   fill="none"
   viewBox="0 0 1024 1024"
   version="1.1"
   id="svg2"
   sodipodi:docname="email.svg"
   inkscape:version="1.4.2 (f4327f4, 2025-05-13)"
   xml:space="preserve"
   xmlns:inkscape="http://www.inkscape.org/namespaces/inkscape"
   xmlns:sodipodi="http://sodipodi.sourceforge.net/DTD/sodipodi-0.dtd"
   xmlns="http://www.w3.org/2000/svg"
   xmlns:svg="http://www.w3.org/2000/svg"><defs
     id="defs2"><inkscape:path-effect
       effect="spiro"
       id="path-effect72"
       is_visible="true"
       lpeversion="1" /><inkscape:path-effect
       effect="spiro"
       id="path-effect41"
       is_visible="true"
       lpeversion="1" /><inkscape:path-effect
       effect="spiro"
       id="path-effect40"
       is_visible="true"
       lpeversion="1" /><inkscape:perspective
       sodipodi:type="inkscape:persp3d"
       inkscape:vp_x="0 : 512 : 1"
       inkscape:vp_y="0 : 1000 : 0"
       inkscape:vp_z="778 : 166 : 1"
       inkscape:persp3d-origin="512 : 341.33333 : 1"
       id="perspective32" /><mask
       id="prefix__a-5"><path
         fill="#ffffff"
         d="M 0,0 H 1024 V 1024 H 0 Z"
         id="path1-1" /><path
         fill="#000000"
         d="m 284.17,677.998 h -50.762 a 18.054,18.054 0 0 1 -4.963,-0.621 q -5.565,-1.595 -7.043,-7.276 a 18.477,18.477 0 0 1 -0.535,-4.644 V 306.543 a 18.054,18.054 0 0 1 0.622,-4.963 q 1.594,-5.565 7.275,-7.043 a 18.477,18.477 0 0 1 4.644,-0.535 h 50.762 a 18.054,18.054 0 0 1 4.962,0.622 q 5.566,1.594 7.044,7.275 a 18.477,18.477 0 0 1 0.535,4.644 v 140.341 a 8.601,8.601 0 0 0 0.387,2.699 q 1.273,3.853 6.73,3.87 a 15.563,15.563 0 0 0 0.049,0 h 100.926 a 9.457,9.457 0 0 0 2.6,-0.326 q 2.915,-0.835 3.689,-3.81 a 9.678,9.678 0 0 0 0.28,-2.433 V 306.543 a 18.054,18.054 0 0 1 0.622,-4.963 q 1.594,-5.565 7.275,-7.043 a 18.477,18.477 0 0 1 4.644,-0.535 h 50.762 a 18.054,18.054 0 0 1 4.963,0.622 q 5.565,1.594 7.043,7.275 a 18.477,18.477 0 0 1 0.535,4.644 v 358.914 a 18.054,18.054 0 0 1 -0.622,4.963 q -1.594,5.565 -7.275,7.044 a 18.477,18.477 0 0 1 -4.644,0.534 h -50.762 a 18.054,18.054 0 0 1 -4.963,-0.621 q -5.565,-1.595 -7.043,-7.276 a 18.477,18.477 0 0 1 -0.535,-4.644 V 525.714 a 9.457,9.457 0 0 0 -0.326,-2.6 q -0.835,-2.915 -3.81,-3.69 a 9.678,9.678 0 0 0 -2.433,-0.28 H 303.877 a 11.332,11.332 0 0 0 -2.749,0.304 q -4.417,1.108 -4.417,6.266 v 139.743 a 18.054,18.054 0 0 1 -0.622,4.963 q -1.594,5.565 -7.275,7.044 a 18.477,18.477 0 0 1 -4.644,0.534 z m 382.204,-13.735 h -19.707 a 134.823,134.823 0 0 1 -26.553,-2.45 Q 604.2,658.614 592.017,651.235 a 70.566,70.566 0 0 1 -14.923,-12.054 q -20.019,-21.286 -23.049,-58.485 a 169.757,169.757 0 0 1 -0.541,-13.776 v -96.148 q 0,-36.035 14.981,-59.179 a 75.809,75.809 0 0 1 10.699,-13.082 83.556,83.556 0 0 1 36.283,-20.451 q 16.303,-4.631 36.575,-4.631 h 137.952 q 13.138,0 13.138,12.541 v 294.417 a 134.053,134.053 0 0 1 -2.797,28.254 q -3.937,18.258 -13.417,31.929 a 76.587,76.587 0 0 1 -9.764,11.48 85.404,85.404 0 0 1 -38.038,20.923 q -13.365,3.575 -29.254,4.077 a 166.59,166.59 0 0 1 -5.267,0.083 H 589.933 a 30.033,30.033 0 0 1 -3.303,-0.168 q -3.372,-0.375 -5.351,-1.586 a 6.431,6.431 0 0 1 -1.199,-0.934 7.609,7.609 0 0 1 -1.638,-2.561 q -0.945,-2.331 -1.039,-5.891 a 30.38,30.38 0 0 1 -0.011,-0.804 v -41.207 a 18.054,18.054 0 0 1 0.622,-4.963 q 1.594,-5.565 7.275,-7.043 a 18.477,18.477 0 0 1 4.644,-0.535 h 102.121 q 17.527,0 25.761,-6.782 a 19.767,19.767 0 0 0 1.411,-1.28 23.621,23.621 0 0 0 5.22,-8.275 q 2.842,-7.308 2.842,-18.3 v -45.387 h -2.389 a 45.994,45.994 0 0 1 -21.114,23.34 59.11,59.11 0 0 1 -2.176,1.145 77.77,77.77 0 0 1 -35.235,8.361 z M 727.288,553.184 V 445.689 a 8.601,8.601 0 0 0 -0.387,-2.698 q -1.273,-3.854 -6.73,-3.871 a 15.563,15.563 0 0 0 -0.049,0 h -56.136 q -17.24,0 -25.246,6.561 a 18.813,18.813 0 0 0 -1.628,1.501 23.106,23.106 0 0 0 -4.731,7.601 q -2.731,6.868 -3.003,17.235 a 89.111,89.111 0 0 0 -0.03,2.337 v 88.982 a 74.941,74.941 0 0 0 0.485,8.846 q 1.193,10 5.317,15.715 a 18.909,18.909 0 0 0 1.962,2.313 21.947,21.947 0 0 0 7.418,4.73 q 6.732,2.718 17.024,3 a 88.769,88.769 0 0 0 2.432,0.033 h 22.096 a 54.132,54.132 0 0 0 16.928,-2.419 q 24.278,-7.991 24.278,-42.371 z"
         id="path2-7" /></mask></defs><sodipodi:namedview
     id="namedview2"
     pagecolor="#505050"
     bordercolor="#eeeeee"
     borderopacity="1"
     inkscape:showpageshadow="0"
     inkscape:pageopacity="0"
     inkscape:pagecheckerboard="0"
     inkscape:deskcolor="#505050"
     showgrid="false"
     inkscape:zoom="2.8225745"
     inkscape:cx="47.828676"
     inkscape:cy="71.56587"
     inkscape:window-width="1920"
     inkscape:window-height="1017"
     inkscape:window-x="-8"
     inkscape:window-y="-8"
     inkscape:window-maximized="1"
     inkscape:current-layer="svg2" /><rect
     style="fill:#ed8796;stroke-width:8;fill-opacity:1"
     id="rect1"
     width="751.08734"
     height="578.19556"
     x="167.22322"
     y="218.24048" /><path
     id="rect2-6-7"
     mask="none"
     style="display:inline;fill:#363a4f;fill-opacity:1"
     d="M 100 0 C 44.6 0 0 44.6 0 100 L 0 924 C 0 979.4 44.6 1024 100 1024 L 924 1024 C 979.4 1024 1024 979.4 1024 924 L 1024 100 C 1024 44.6 979.4 0 924 0 L 100 0 z M 315.8125 298.89062 L 708.1875 298.89062 C 728.92948 298.89062 747.90966 307.3741 761.4375 320.96875 C 763.26066 322.78766 764.95252 324.59397 766.5625 326.625 C 774.1977 335.94655 779.66153 347.23207 782.10938 359.5625 C 783.02678 364.32138 783.51662 369.2467 783.51562 374.21875 L 783.51562 649.79688 C 783.51562 660.36779 781.34111 670.46333 777.34375 679.64062 L 777.34375 679.70312 C 773.55849 688.46361 768.08741 696.38453 761.4375 703.03125 C 759.7554 704.71335 758.07209 706.2644 756.25 707.73438 C 743.29487 718.59377 726.40846 725.10938 708.1875 725.10938 L 315.8125 725.10938 C 297.59791 725.10937 280.78043 718.58839 267.75 707.79688 C 265.92261 706.25901 264.24884 704.71335 262.5625 703.03125 C 255.90941 696.38453 250.44325 688.46361 246.73438 679.70312 C 242.73594 670.52584 240.48438 660.36886 240.48438 649.79688 L 240.48438 374.21875 C 240.48438 369.2467 240.97526 364.32138 241.95312 359.5625 C 244.33308 347.23207 249.81368 335.94548 257.45312 326.625 C 259.06734 324.59397 260.74359 322.78766 262.5625 320.96875 C 276.15398 307.3741 295.07052 298.89062 315.8125 298.89062 z M 315.8125 337.42188 C 305.58204 337.42187 296.54195 341.49673 289.8125 348.21875 C 288.62251 349.41616 287.50374 350.67426 286.59375 352 L 492.17188 531.3125 C 497.91921 536.28349 504.92161 538.73438 512 538.73438 C 519.15051 538.73438 526.15608 536.28349 531.82812 531.3125 L 737.48438 352.07812 C 736.49485 350.75238 735.37748 349.41616 734.1875 348.21875 C 727.53759 341.49673 718.41796 337.42188 708.1875 337.42188 L 315.8125 337.42188 z M 279.03125 391.875 L 279.03125 649.79688 C 279.03125 650.35792 279.01845 650.91414 279.09375 651.40625 L 427.84375 521.70312 L 279.03125 391.875 z M 744.96875 391.9375 L 596.15625 521.78125 L 744.90625 651.40625 C 744.97835 650.91414 744.96875 650.35793 744.96875 649.79688 L 744.96875 391.9375 z M 454.54688 544.96875 L 297.59375 681.75 C 302.91367 684.82679 309.15093 686.5625 315.8125 686.5625 L 708.1875 686.5625 C 714.84907 686.5625 721.0789 684.82679 726.40625 681.75 L 569.53125 544.96875 L 554.875 557.71875 C 542.61456 568.37345 527.27888 573.76562 512 573.76562 C 496.7996 573.76562 481.449 568.37345 469.1875 557.71875 L 454.54688 544.96875 z " /><style
     type="text/css"
     id="style1">
	.st0{fill:#000000;}
</style></svg>
